<mxfile host="app.diagrams.net" modified="2022-11-10T23:22:05.825Z" agent="5.0 (Windows NT 10.0; Win64; x64) AppleWebKit/537.36 (KHTML, like Gecko) Chrome/107.0.0.0 Safari/537.36" etag="4FhmbE79e7Ci96MOY9Qr" version="20.5.3" type="github">
  <diagram id="bdnQ-0BhdI4TAcYdlH-2" name="PÃ¡gina-1">
    <mxGraphModel dx="1422" dy="758" grid="0" gridSize="10" guides="1" tooltips="1" connect="1" arrows="1" fold="1" page="1" pageScale="1" pageWidth="900" pageHeight="1600" math="0" shadow="0">
      <root>
        <mxCell id="0" />
        <mxCell id="1" parent="0" />
        <mxCell id="0XWbLk1M8rzaQDneOr1y-11" value="&lt;i&gt;Dicta&lt;/i&gt;" style="shape=rhombus;perimeter=rhombusPerimeter;whiteSpace=wrap;html=1;align=center;" parent="1" vertex="1">
          <mxGeometry x="580" y="295" width="120" height="60" as="geometry" />
        </mxCell>
        <mxCell id="0XWbLk1M8rzaQDneOr1y-13" value="" style="edgeStyle=elbowEdgeStyle;fontSize=12;html=1;endArrow=ERoneToMany;rounded=0;entryX=1;entryY=0.5;entryDx=0;entryDy=0;exitX=0;exitY=0.5;exitDx=0;exitDy=0;" parent="1" source="0XWbLk1M8rzaQDneOr1y-11" edge="1">
          <mxGeometry width="100" height="100" relative="1" as="geometry">
            <mxPoint x="590" y="490" as="sourcePoint" />
            <mxPoint x="530" y="325" as="targetPoint" />
          </mxGeometry>
        </mxCell>
        <mxCell id="0XWbLk1M8rzaQDneOr1y-20" value="&lt;i&gt;Hace clases&lt;/i&gt;" style="shape=rhombus;perimeter=rhombusPerimeter;whiteSpace=wrap;html=1;align=center;" parent="1" vertex="1">
          <mxGeometry x="530" y="540" width="120" height="60" as="geometry" />
        </mxCell>
        <mxCell id="0XWbLk1M8rzaQDneOr1y-21" value="" style="fontSize=12;html=1;endArrow=ERoneToMany;rounded=0;entryX=0;entryY=0.5;entryDx=0;entryDy=0;" parent="1" edge="1">
          <mxGeometry width="100" height="100" relative="1" as="geometry">
            <mxPoint x="650" y="570" as="sourcePoint" />
            <mxPoint x="765" y="570" as="targetPoint" />
            <Array as="points">
              <mxPoint x="710" y="570" />
            </Array>
          </mxGeometry>
        </mxCell>
        <mxCell id="0XWbLk1M8rzaQDneOr1y-22" value="" style="fontSize=12;html=1;endArrow=ERoneToMany;rounded=0;entryX=0.5;entryY=1;entryDx=0;entryDy=0;exitX=0;exitY=0.5;exitDx=0;exitDy=0;" parent="1" source="0XWbLk1M8rzaQDneOr1y-20" edge="1">
          <mxGeometry width="100" height="100" relative="1" as="geometry">
            <mxPoint x="465" y="570" as="sourcePoint" />
            <mxPoint x="465" y="350" as="targetPoint" />
            <Array as="points">
              <mxPoint x="465" y="570" />
            </Array>
          </mxGeometry>
        </mxCell>
        <mxCell id="0XWbLk1M8rzaQDneOr1y-23" value="&lt;i&gt;Pertenece&lt;/i&gt;" style="shape=rhombus;perimeter=rhombusPerimeter;whiteSpace=wrap;html=1;align=center;" parent="1" vertex="1">
          <mxGeometry x="900" y="540" width="120" height="60" as="geometry" />
        </mxCell>
        <mxCell id="0XWbLk1M8rzaQDneOr1y-25" value="" style="fontSize=12;html=1;endArrow=ERoneToMany;rounded=0;exitX=1;exitY=0.5;exitDx=0;exitDy=0;entryX=0.25;entryY=1;entryDx=0;entryDy=0;" parent="1" source="0XWbLk1M8rzaQDneOr1y-23" edge="1">
          <mxGeometry width="100" height="100" relative="1" as="geometry">
            <mxPoint x="640" y="580" as="sourcePoint" />
            <mxPoint x="1047.5" y="450" as="targetPoint" />
            <Array as="points">
              <mxPoint x="1048" y="570" />
            </Array>
          </mxGeometry>
        </mxCell>
        <mxCell id="0XWbLk1M8rzaQDneOr1y-26" value="&lt;i&gt;Rinde&lt;/i&gt;" style="shape=rhombus;perimeter=rhombusPerimeter;whiteSpace=wrap;html=1;align=center;" parent="1" vertex="1">
          <mxGeometry x="1020" y="295" width="120" height="60" as="geometry" />
        </mxCell>
        <mxCell id="0XWbLk1M8rzaQDneOr1y-28" value="" style="fontSize=12;html=1;endArrow=ERoneToMany;rounded=0;exitX=0.5;exitY=1;exitDx=0;exitDy=0;" parent="1" source="0XWbLk1M8rzaQDneOr1y-26" edge="1">
          <mxGeometry width="100" height="100" relative="1" as="geometry">
            <mxPoint x="810" y="470" as="sourcePoint" />
            <mxPoint x="1080" y="400" as="targetPoint" />
          </mxGeometry>
        </mxCell>
        <mxCell id="0XWbLk1M8rzaQDneOr1y-43" value="&lt;u&gt;Id&lt;/u&gt;" style="ellipse;whiteSpace=wrap;html=1;align=center;" parent="1" vertex="1">
          <mxGeometry x="632" y="255" width="100" height="40" as="geometry" />
        </mxCell>
        <mxCell id="0XWbLk1M8rzaQDneOr1y-44" value="Nombre" style="ellipse;whiteSpace=wrap;html=1;align=center;" parent="1" vertex="1">
          <mxGeometry x="653" y="208" width="100" height="40" as="geometry" />
        </mxCell>
        <mxCell id="0XWbLk1M8rzaQDneOr1y-45" value="" style="endArrow=none;html=1;rounded=0;exitX=0.25;exitY=0;exitDx=0;exitDy=0;entryX=0.93;entryY=0.775;entryDx=0;entryDy=0;entryPerimeter=0;" parent="1" source="xwqHHCTengvlu3q1u-sC-12" target="0XWbLk1M8rzaQDneOr1y-43" edge="1">
          <mxGeometry relative="1" as="geometry">
            <mxPoint x="767.04" y="298" as="sourcePoint" />
            <mxPoint x="920" y="160" as="targetPoint" />
          </mxGeometry>
        </mxCell>
        <mxCell id="0XWbLk1M8rzaQDneOr1y-46" value="" style="endArrow=none;html=1;rounded=0;exitX=0.5;exitY=0;exitDx=0;exitDy=0;entryX=1;entryY=1;entryDx=0;entryDy=0;" parent="1" target="0XWbLk1M8rzaQDneOr1y-44" edge="1">
          <mxGeometry relative="1" as="geometry">
            <mxPoint x="815" y="300" as="sourcePoint" />
            <mxPoint x="1060" y="250" as="targetPoint" />
          </mxGeometry>
        </mxCell>
        <mxCell id="0XWbLk1M8rzaQDneOr1y-47" value="Nombre" style="ellipse;whiteSpace=wrap;html=1;align=center;" parent="1" vertex="1">
          <mxGeometry x="390" y="230" width="60" height="40" as="geometry" />
        </mxCell>
        <mxCell id="0XWbLk1M8rzaQDneOr1y-48" value="Apellido" style="ellipse;whiteSpace=wrap;html=1;align=center;" parent="1" vertex="1">
          <mxGeometry x="450" y="220" width="70" height="40" as="geometry" />
        </mxCell>
        <mxCell id="0XWbLk1M8rzaQDneOr1y-49" value="" style="endArrow=none;html=1;rounded=0;exitX=0.5;exitY=1;exitDx=0;exitDy=0;entryX=0.25;entryY=0;entryDx=0;entryDy=0;" parent="1" source="0XWbLk1M8rzaQDneOr1y-47" edge="1">
          <mxGeometry relative="1" as="geometry">
            <mxPoint x="440" y="290" as="sourcePoint" />
            <mxPoint x="432.5" y="300" as="targetPoint" />
          </mxGeometry>
        </mxCell>
        <mxCell id="0XWbLk1M8rzaQDneOr1y-50" value="" style="endArrow=none;html=1;rounded=0;exitX=0.5;exitY=0;exitDx=0;exitDy=0;entryX=0.5;entryY=1;entryDx=0;entryDy=0;" parent="1" target="0XWbLk1M8rzaQDneOr1y-48" edge="1">
          <mxGeometry relative="1" as="geometry">
            <mxPoint x="465" y="300" as="sourcePoint" />
            <mxPoint x="710" y="280" as="targetPoint" />
          </mxGeometry>
        </mxCell>
        <mxCell id="0XWbLk1M8rzaQDneOr1y-51" value="Grado" style="ellipse;whiteSpace=wrap;html=1;align=center;" parent="1" vertex="1">
          <mxGeometry x="740" y="600" width="60" height="40" as="geometry" />
        </mxCell>
        <mxCell id="0XWbLk1M8rzaQDneOr1y-52" value="" style="endArrow=none;html=1;rounded=0;exitX=0.5;exitY=0;exitDx=0;exitDy=0;entryX=0.25;entryY=1;entryDx=0;entryDy=0;" parent="1" source="0XWbLk1M8rzaQDneOr1y-51" edge="1">
          <mxGeometry relative="1" as="geometry">
            <mxPoint x="780" y="620" as="sourcePoint" />
            <mxPoint x="790" y="590" as="targetPoint" />
          </mxGeometry>
        </mxCell>
        <mxCell id="0XWbLk1M8rzaQDneOr1y-53" value="&lt;u&gt;Id&lt;/u&gt;" style="ellipse;whiteSpace=wrap;html=1;align=center;" parent="1" vertex="1">
          <mxGeometry x="825" y="600" width="45" height="40" as="geometry" />
        </mxCell>
        <mxCell id="0XWbLk1M8rzaQDneOr1y-54" value="" style="endArrow=none;html=1;rounded=0;exitX=0.5;exitY=1;exitDx=0;exitDy=0;entryX=0.5;entryY=0;entryDx=0;entryDy=0;" parent="1" target="0XWbLk1M8rzaQDneOr1y-53" edge="1">
          <mxGeometry relative="1" as="geometry">
            <mxPoint x="815" y="590" as="sourcePoint" />
            <mxPoint x="1030" y="610" as="targetPoint" />
          </mxGeometry>
        </mxCell>
        <mxCell id="0XWbLk1M8rzaQDneOr1y-55" value="&lt;u&gt;Rut&lt;/u&gt;" style="ellipse;whiteSpace=wrap;html=1;align=center;" parent="1" vertex="1">
          <mxGeometry x="340" y="250" width="60" height="40" as="geometry" />
        </mxCell>
        <mxCell id="0XWbLk1M8rzaQDneOr1y-56" value="" style="endArrow=none;html=1;rounded=0;exitX=1;exitY=1;exitDx=0;exitDy=0;entryX=0;entryY=0.25;entryDx=0;entryDy=0;" parent="1" source="0XWbLk1M8rzaQDneOr1y-55" edge="1">
          <mxGeometry relative="1" as="geometry">
            <mxPoint x="510" y="380" as="sourcePoint" />
            <mxPoint x="400" y="312.5" as="targetPoint" />
          </mxGeometry>
        </mxCell>
        <mxCell id="0XWbLk1M8rzaQDneOr1y-57" value="Nombre" style="ellipse;whiteSpace=wrap;html=1;align=center;" parent="1" vertex="1">
          <mxGeometry x="1140" y="380" width="80" height="40" as="geometry" />
        </mxCell>
        <mxCell id="0XWbLk1M8rzaQDneOr1y-58" value="Apellido" style="ellipse;whiteSpace=wrap;html=1;align=center;" parent="1" vertex="1">
          <mxGeometry x="1170" y="420" width="80" height="40" as="geometry" />
        </mxCell>
        <mxCell id="0XWbLk1M8rzaQDneOr1y-59" value="&lt;u&gt;Rut&lt;/u&gt;" style="ellipse;whiteSpace=wrap;html=1;align=center;" parent="1" vertex="1">
          <mxGeometry x="1000" y="340" width="50" height="40" as="geometry" />
        </mxCell>
        <mxCell id="0XWbLk1M8rzaQDneOr1y-62" value="" style="endArrow=none;html=1;rounded=0;exitX=1;exitY=0.5;exitDx=0;exitDy=0;entryX=0;entryY=1;entryDx=0;entryDy=0;" parent="1" target="0XWbLk1M8rzaQDneOr1y-57" edge="1">
          <mxGeometry relative="1" as="geometry">
            <mxPoint x="1130" y="425" as="sourcePoint" />
            <mxPoint x="1260" y="330" as="targetPoint" />
          </mxGeometry>
        </mxCell>
        <mxCell id="0XWbLk1M8rzaQDneOr1y-63" value="" style="endArrow=none;html=1;rounded=0;exitX=1;exitY=0.75;exitDx=0;exitDy=0;entryX=0;entryY=0.5;entryDx=0;entryDy=0;" parent="1" target="0XWbLk1M8rzaQDneOr1y-58" edge="1">
          <mxGeometry relative="1" as="geometry">
            <mxPoint x="1130" y="437.5" as="sourcePoint" />
            <mxPoint x="1360" y="380" as="targetPoint" />
          </mxGeometry>
        </mxCell>
        <mxCell id="0XWbLk1M8rzaQDneOr1y-64" value="" style="endArrow=none;html=1;rounded=0;exitX=1;exitY=1;exitDx=0;exitDy=0;entryX=0.25;entryY=0;entryDx=0;entryDy=0;" parent="1" source="0XWbLk1M8rzaQDneOr1y-59" edge="1">
          <mxGeometry relative="1" as="geometry">
            <mxPoint x="860" y="480" as="sourcePoint" />
            <mxPoint x="1047.5" y="400" as="targetPoint" />
          </mxGeometry>
        </mxCell>
        <mxCell id="dlj0a-jhVRtgYwN9_yWT-4" value="EspecializaciÃ³n" style="ellipse;whiteSpace=wrap;html=1;align=center;" parent="1" vertex="1">
          <mxGeometry x="520" y="240" width="95" height="40" as="geometry" />
        </mxCell>
        <mxCell id="dlj0a-jhVRtgYwN9_yWT-5" value="" style="endArrow=none;html=1;rounded=0;entryX=0;entryY=1;entryDx=0;entryDy=0;exitX=0.75;exitY=0;exitDx=0;exitDy=0;" parent="1" target="dlj0a-jhVRtgYwN9_yWT-4" edge="1">
          <mxGeometry width="50" height="50" relative="1" as="geometry">
            <mxPoint x="497.5" y="300" as="sourcePoint" />
            <mxPoint x="790" y="340" as="targetPoint" />
          </mxGeometry>
        </mxCell>
        <mxCell id="dlj0a-jhVRtgYwN9_yWT-12" value="FechaNacimiento" style="ellipse;whiteSpace=wrap;html=1;align=center;" parent="1" vertex="1">
          <mxGeometry x="885" y="365" width="115" height="40" as="geometry" />
        </mxCell>
        <mxCell id="dlj0a-jhVRtgYwN9_yWT-13" value="" style="endArrow=none;html=1;rounded=0;exitX=0;exitY=0.25;exitDx=0;exitDy=0;entryX=1;entryY=0.5;entryDx=0;entryDy=0;" parent="1" target="dlj0a-jhVRtgYwN9_yWT-12" edge="1">
          <mxGeometry width="50" height="50" relative="1" as="geometry">
            <mxPoint x="1020" y="412.5" as="sourcePoint" />
            <mxPoint x="980" y="430" as="targetPoint" />
          </mxGeometry>
        </mxCell>
        <mxCell id="dlj0a-jhVRtgYwN9_yWT-25" value="" style="fontSize=12;html=1;endArrow=ERmandOne;rounded=0;exitX=0.5;exitY=1;exitDx=0;exitDy=0;entryX=0.5;entryY=0;entryDx=0;entryDy=0;" parent="1" source="dlj0a-jhVRtgYwN9_yWT-26" target="2GNbs6HTa_5csAcw25Do-4" edge="1">
          <mxGeometry width="100" height="100" relative="1" as="geometry">
            <mxPoint x="1130" y="600" as="sourcePoint" />
            <mxPoint x="1074.6" y="740.72" as="targetPoint" />
            <Array as="points" />
          </mxGeometry>
        </mxCell>
        <mxCell id="dlj0a-jhVRtgYwN9_yWT-26" value="&lt;i&gt;Tiene&lt;/i&gt;" style="shape=rhombus;perimeter=rhombusPerimeter;whiteSpace=wrap;html=1;align=center;" parent="1" vertex="1">
          <mxGeometry x="1015" y="590" width="120" height="60" as="geometry" />
        </mxCell>
        <mxCell id="dlj0a-jhVRtgYwN9_yWT-29" value="" style="fontSize=12;html=1;endArrow=ERoneToMany;rounded=0;entryX=0.5;entryY=1;entryDx=0;entryDy=0;" parent="1" edge="1">
          <mxGeometry width="100" height="100" relative="1" as="geometry">
            <mxPoint x="1075" y="590" as="sourcePoint" />
            <mxPoint x="1075" y="450" as="targetPoint" />
            <Array as="points" />
          </mxGeometry>
        </mxCell>
        <mxCell id="dlj0a-jhVRtgYwN9_yWT-30" value="&lt;u&gt;Rut&lt;/u&gt;" style="ellipse;whiteSpace=wrap;html=1;align=center;" parent="1" vertex="1">
          <mxGeometry x="971" y="811" width="60" height="40" as="geometry" />
        </mxCell>
        <mxCell id="dlj0a-jhVRtgYwN9_yWT-33" value="Nombre" style="ellipse;whiteSpace=wrap;html=1;align=center;" parent="1" vertex="1">
          <mxGeometry x="1118" y="817" width="80" height="40" as="geometry" />
        </mxCell>
        <mxCell id="dlj0a-jhVRtgYwN9_yWT-34" value="Apellido" style="ellipse;whiteSpace=wrap;html=1;align=center;" parent="1" vertex="1">
          <mxGeometry x="1035" y="813" width="80" height="40" as="geometry" />
        </mxCell>
        <mxCell id="dlj0a-jhVRtgYwN9_yWT-43" value="" style="endArrow=none;html=1;rounded=0;entryX=0.5;entryY=1;entryDx=0;entryDy=0;exitX=0.5;exitY=0;exitDx=0;exitDy=0;" parent="1" source="dlj0a-jhVRtgYwN9_yWT-34" target="2GNbs6HTa_5csAcw25Do-4" edge="1">
          <mxGeometry width="50" height="50" relative="1" as="geometry">
            <mxPoint x="800" y="840" as="sourcePoint" />
            <mxPoint x="1065" y="780" as="targetPoint" />
          </mxGeometry>
        </mxCell>
        <mxCell id="dlj0a-jhVRtgYwN9_yWT-44" value="" style="endArrow=none;html=1;rounded=0;entryX=0.5;entryY=0;entryDx=0;entryDy=0;exitX=1;exitY=1;exitDx=0;exitDy=0;" parent="1" source="2GNbs6HTa_5csAcw25Do-4" target="dlj0a-jhVRtgYwN9_yWT-33" edge="1">
          <mxGeometry width="50" height="50" relative="1" as="geometry">
            <mxPoint x="1115" y="780" as="sourcePoint" />
            <mxPoint x="850" y="790" as="targetPoint" />
          </mxGeometry>
        </mxCell>
        <mxCell id="dlj0a-jhVRtgYwN9_yWT-45" value="" style="endArrow=none;html=1;rounded=0;entryX=1;entryY=0;entryDx=0;entryDy=0;exitX=0.25;exitY=1;exitDx=0;exitDy=0;" parent="1" source="2GNbs6HTa_5csAcw25Do-4" target="dlj0a-jhVRtgYwN9_yWT-30" edge="1">
          <mxGeometry width="50" height="50" relative="1" as="geometry">
            <mxPoint x="1040" y="750" as="sourcePoint" />
            <mxPoint x="850" y="790" as="targetPoint" />
          </mxGeometry>
        </mxCell>
        <mxCell id="dlj0a-jhVRtgYwN9_yWT-49" value="&lt;i&gt;Posee&lt;/i&gt;" style="shape=rhombus;perimeter=rhombusPerimeter;whiteSpace=wrap;html=1;align=center;" parent="1" vertex="1">
          <mxGeometry x="755" y="405" width="120" height="60" as="geometry" />
        </mxCell>
        <mxCell id="dlj0a-jhVRtgYwN9_yWT-50" value="" style="fontSize=12;html=1;endArrow=ERoneToMany;rounded=0;exitX=0.5;exitY=0;exitDx=0;exitDy=0;entryX=0.5;entryY=1;entryDx=0;entryDy=0;" parent="1" source="dlj0a-jhVRtgYwN9_yWT-49" edge="1">
          <mxGeometry width="100" height="100" relative="1" as="geometry">
            <mxPoint x="890" y="530" as="sourcePoint" />
            <mxPoint x="815" y="350" as="targetPoint" />
          </mxGeometry>
        </mxCell>
        <mxCell id="dlj0a-jhVRtgYwN9_yWT-51" value="" style="fontSize=12;html=1;endArrow=ERoneToMany;rounded=0;exitX=0.5;exitY=1;exitDx=0;exitDy=0;entryX=0.5;entryY=0;entryDx=0;entryDy=0;" parent="1" source="dlj0a-jhVRtgYwN9_yWT-49" edge="1">
          <mxGeometry width="100" height="100" relative="1" as="geometry">
            <mxPoint x="890" y="530" as="sourcePoint" />
            <mxPoint x="815" y="550" as="targetPoint" />
          </mxGeometry>
        </mxCell>
        <mxCell id="dlj0a-jhVRtgYwN9_yWT-52" value="Jefe" style="ellipse;whiteSpace=wrap;html=1;align=center;" parent="1" vertex="1">
          <mxGeometry x="320" y="295" width="60" height="40" as="geometry" />
        </mxCell>
        <mxCell id="dlj0a-jhVRtgYwN9_yWT-54" value="" style="endArrow=none;html=1;rounded=0;entryX=0;entryY=0.5;entryDx=0;entryDy=0;exitX=1;exitY=0.5;exitDx=0;exitDy=0;" parent="1" source="dlj0a-jhVRtgYwN9_yWT-52" edge="1">
          <mxGeometry width="50" height="50" relative="1" as="geometry">
            <mxPoint x="507.5" y="310" as="sourcePoint" />
            <mxPoint x="400" y="325" as="targetPoint" />
          </mxGeometry>
        </mxCell>
        <mxCell id="xwqHHCTengvlu3q1u-sC-9" value="" style="endArrow=none;html=1;rounded=0;entryX=1;entryY=0.5;entryDx=0;entryDy=0;exitX=0;exitY=0.5;exitDx=0;exitDy=0;" parent="1" source="xwqHHCTengvlu3q1u-sC-10" edge="1" target="0XWbLk1M8rzaQDneOr1y-26">
          <mxGeometry relative="1" as="geometry">
            <mxPoint x="1370" y="710" as="sourcePoint" />
            <mxPoint x="1390" y="710" as="targetPoint" />
          </mxGeometry>
        </mxCell>
        <mxCell id="xwqHHCTengvlu3q1u-sC-10" value="Nota" style="ellipse;whiteSpace=wrap;html=1;align=center;" parent="1" vertex="1">
          <mxGeometry x="1160" y="308" width="80" height="40" as="geometry" />
        </mxCell>
        <mxCell id="xwqHHCTengvlu3q1u-sC-11" value="&lt;b&gt;PROFESOR&lt;/b&gt;" style="whiteSpace=wrap;html=1;align=center;" parent="1" vertex="1">
          <mxGeometry x="400" y="300" width="130" height="50" as="geometry" />
        </mxCell>
        <mxCell id="xwqHHCTengvlu3q1u-sC-12" value="&lt;b&gt;ASIGNATURA&lt;/b&gt;" style="whiteSpace=wrap;html=1;align=center;" parent="1" vertex="1">
          <mxGeometry x="760" y="300" width="110" height="50" as="geometry" />
        </mxCell>
        <mxCell id="xwqHHCTengvlu3q1u-sC-13" value="&lt;b&gt;CURSO&lt;/b&gt;" style="whiteSpace=wrap;html=1;align=center;" parent="1" vertex="1">
          <mxGeometry x="765" y="550" width="95" height="40" as="geometry" />
        </mxCell>
        <mxCell id="xwqHHCTengvlu3q1u-sC-15" value="&lt;b&gt;ALUMNO&lt;/b&gt;" style="whiteSpace=wrap;html=1;align=center;" parent="1" vertex="1">
          <mxGeometry x="1020" y="400" width="110" height="50" as="geometry" />
        </mxCell>
        <mxCell id="xwqHHCTengvlu3q1u-sC-16" value="&lt;b&gt;EVALUACIÃN&lt;/b&gt;" style="whiteSpace=wrap;html=1;align=center;" parent="1" vertex="1">
          <mxGeometry x="1031" y="203" width="100" height="40" as="geometry" />
        </mxCell>
        <mxCell id="xwqHHCTengvlu3q1u-sC-19" value="Fecha" style="ellipse;whiteSpace=wrap;html=1;align=center;" parent="1" vertex="1">
          <mxGeometry x="1140" y="250" width="80" height="40" as="geometry" />
        </mxCell>
        <mxCell id="xwqHHCTengvlu3q1u-sC-20" value="" style="endArrow=none;html=1;rounded=0;entryX=0.75;entryY=1;entryDx=0;entryDy=0;exitX=0;exitY=0.5;exitDx=0;exitDy=0;" parent="1" source="xwqHHCTengvlu3q1u-sC-19" target="xwqHHCTengvlu3q1u-sC-16" edge="1">
          <mxGeometry relative="1" as="geometry">
            <mxPoint x="1222" y="242" as="sourcePoint" />
            <mxPoint x="1400" y="720.0000000000002" as="targetPoint" />
            <Array as="points" />
          </mxGeometry>
        </mxCell>
        <mxCell id="zooJZPz_uAt047E7cGX0-1" value="Orden" style="ellipse;whiteSpace=wrap;html=1;align=center;" parent="1" vertex="1">
          <mxGeometry x="940" y="420" width="60" height="40" as="geometry" />
        </mxCell>
        <mxCell id="zooJZPz_uAt047E7cGX0-2" value="" style="endArrow=none;html=1;rounded=0;exitX=0;exitY=0.75;exitDx=0;exitDy=0;entryX=1;entryY=0.5;entryDx=0;entryDy=0;" parent="1" source="xwqHHCTengvlu3q1u-sC-15" target="zooJZPz_uAt047E7cGX0-1" edge="1">
          <mxGeometry width="50" height="50" relative="1" as="geometry">
            <mxPoint x="1030" y="422.5" as="sourcePoint" />
            <mxPoint x="1010" y="395" as="targetPoint" />
          </mxGeometry>
        </mxCell>
        <mxCell id="2GNbs6HTa_5csAcw25Do-2" value="Horas" style="ellipse;whiteSpace=wrap;html=1;align=center;" vertex="1" parent="1">
          <mxGeometry x="758" y="210" width="100" height="40" as="geometry" />
        </mxCell>
        <mxCell id="2GNbs6HTa_5csAcw25Do-3" value="" style="endArrow=none;html=1;rounded=0;entryX=0.5;entryY=1;entryDx=0;entryDy=0;exitX=0.75;exitY=0;exitDx=0;exitDy=0;" edge="1" parent="1" source="xwqHHCTengvlu3q1u-sC-12" target="2GNbs6HTa_5csAcw25Do-2">
          <mxGeometry relative="1" as="geometry">
            <mxPoint x="883" y="291" as="sourcePoint" />
            <mxPoint x="1043" y="291" as="targetPoint" />
          </mxGeometry>
        </mxCell>
        <mxCell id="2GNbs6HTa_5csAcw25Do-4" value="&lt;b&gt;APODERADO&lt;/b&gt;" style="whiteSpace=wrap;html=1;align=center;" vertex="1" parent="1">
          <mxGeometry x="1025" y="742" width="100" height="40" as="geometry" />
        </mxCell>
        <mxCell id="2GNbs6HTa_5csAcw25Do-5" value="Mail" style="ellipse;whiteSpace=wrap;html=1;align=center;" vertex="1" parent="1">
          <mxGeometry x="1187" y="780" width="100" height="40" as="geometry" />
        </mxCell>
        <mxCell id="2GNbs6HTa_5csAcw25Do-6" value="Telefono" style="ellipse;whiteSpace=wrap;html=1;align=center;" vertex="1" parent="1">
          <mxGeometry x="873" y="796" width="100" height="40" as="geometry" />
        </mxCell>
        <mxCell id="2GNbs6HTa_5csAcw25Do-7" value="" style="endArrow=none;html=1;rounded=0;entryX=0;entryY=0.5;entryDx=0;entryDy=0;exitX=1;exitY=0.5;exitDx=0;exitDy=0;" edge="1" parent="1" source="2GNbs6HTa_5csAcw25Do-4" target="2GNbs6HTa_5csAcw25Do-5">
          <mxGeometry relative="1" as="geometry">
            <mxPoint x="945" y="490" as="sourcePoint" />
            <mxPoint x="1105" y="490" as="targetPoint" />
          </mxGeometry>
        </mxCell>
        <mxCell id="2GNbs6HTa_5csAcw25Do-8" value="" style="endArrow=none;html=1;rounded=0;entryX=1;entryY=0;entryDx=0;entryDy=0;exitX=0;exitY=0.5;exitDx=0;exitDy=0;" edge="1" parent="1" source="2GNbs6HTa_5csAcw25Do-4" target="2GNbs6HTa_5csAcw25Do-6">
          <mxGeometry relative="1" as="geometry">
            <mxPoint x="1015" y="721.5" as="sourcePoint" />
            <mxPoint x="1175" y="721.5" as="targetPoint" />
          </mxGeometry>
        </mxCell>
        <mxCell id="2GNbs6HTa_5csAcw25Do-9" value="" style="edgeStyle=entityRelationEdgeStyle;fontSize=12;html=1;endArrow=ERmandOne;rounded=0;exitX=0;exitY=0.5;exitDx=0;exitDy=0;entryX=1;entryY=0.5;entryDx=0;entryDy=0;" edge="1" parent="1" source="0XWbLk1M8rzaQDneOr1y-23" target="xwqHHCTengvlu3q1u-sC-13">
          <mxGeometry width="100" height="100" relative="1" as="geometry">
            <mxPoint x="975" y="540" as="sourcePoint" />
            <mxPoint x="1075" y="440" as="targetPoint" />
          </mxGeometry>
        </mxCell>
        <mxCell id="2GNbs6HTa_5csAcw25Do-12" value="" style="fontSize=12;html=1;endArrow=ERoneToMany;rounded=0;exitX=0.5;exitY=0;exitDx=0;exitDy=0;entryX=0.5;entryY=1;entryDx=0;entryDy=0;" edge="1" parent="1" source="0XWbLk1M8rzaQDneOr1y-26" target="xwqHHCTengvlu3q1u-sC-16">
          <mxGeometry width="100" height="100" relative="1" as="geometry">
            <mxPoint x="975" y="540" as="sourcePoint" />
            <mxPoint x="1075" y="440" as="targetPoint" />
          </mxGeometry>
        </mxCell>
        <mxCell id="2GNbs6HTa_5csAcw25Do-13" value="Contenido" style="ellipse;whiteSpace=wrap;html=1;align=center;" vertex="1" parent="1">
          <mxGeometry x="1194" y="175" width="100" height="40" as="geometry" />
        </mxCell>
        <mxCell id="2GNbs6HTa_5csAcw25Do-14" value="Tipo" style="ellipse;whiteSpace=wrap;html=1;align=center;" vertex="1" parent="1">
          <mxGeometry x="1040" y="126" width="100" height="40" as="geometry" />
        </mxCell>
        <mxCell id="2GNbs6HTa_5csAcw25Do-15" value="Instrumento" style="ellipse;whiteSpace=wrap;html=1;align=center;" vertex="1" parent="1">
          <mxGeometry x="1217" y="220" width="100" height="40" as="geometry" />
        </mxCell>
        <mxCell id="2GNbs6HTa_5csAcw25Do-16" value="Profesor" style="ellipse;whiteSpace=wrap;html=1;align=center;" vertex="1" parent="1">
          <mxGeometry x="1145" y="131" width="100" height="40" as="geometry" />
        </mxCell>
        <mxCell id="2GNbs6HTa_5csAcw25Do-17" value="" style="endArrow=none;html=1;rounded=0;entryX=0.5;entryY=1;entryDx=0;entryDy=0;exitX=0.75;exitY=0;exitDx=0;exitDy=0;" edge="1" parent="1" source="xwqHHCTengvlu3q1u-sC-16" target="2GNbs6HTa_5csAcw25Do-14">
          <mxGeometry relative="1" as="geometry">
            <mxPoint x="945" y="490" as="sourcePoint" />
            <mxPoint x="1105" y="490" as="targetPoint" />
          </mxGeometry>
        </mxCell>
        <mxCell id="2GNbs6HTa_5csAcw25Do-18" value="" style="endArrow=none;html=1;rounded=0;entryX=0;entryY=0;entryDx=0;entryDy=0;exitX=1;exitY=0.5;exitDx=0;exitDy=0;" edge="1" parent="1" source="xwqHHCTengvlu3q1u-sC-16" target="2GNbs6HTa_5csAcw25Do-15">
          <mxGeometry relative="1" as="geometry">
            <mxPoint x="945" y="490" as="sourcePoint" />
            <mxPoint x="1105" y="490" as="targetPoint" />
          </mxGeometry>
        </mxCell>
        <mxCell id="2GNbs6HTa_5csAcw25Do-19" value="" style="endArrow=none;html=1;rounded=0;entryX=0;entryY=0.5;entryDx=0;entryDy=0;exitX=1;exitY=0.25;exitDx=0;exitDy=0;" edge="1" parent="1" source="xwqHHCTengvlu3q1u-sC-16" target="2GNbs6HTa_5csAcw25Do-13">
          <mxGeometry relative="1" as="geometry">
            <mxPoint x="945" y="490" as="sourcePoint" />
            <mxPoint x="1105" y="490" as="targetPoint" />
          </mxGeometry>
        </mxCell>
        <mxCell id="2GNbs6HTa_5csAcw25Do-20" value="" style="endArrow=none;html=1;rounded=0;entryX=0;entryY=0.5;entryDx=0;entryDy=0;exitX=1;exitY=0;exitDx=0;exitDy=0;" edge="1" parent="1" source="xwqHHCTengvlu3q1u-sC-16" target="2GNbs6HTa_5csAcw25Do-16">
          <mxGeometry relative="1" as="geometry">
            <mxPoint x="945" y="490" as="sourcePoint" />
            <mxPoint x="1105" y="490" as="targetPoint" />
          </mxGeometry>
        </mxCell>
        <mxCell id="2GNbs6HTa_5csAcw25Do-21" value="&lt;i&gt;Realiza&lt;/i&gt;" style="shape=rhombus;perimeter=rhombusPerimeter;whiteSpace=wrap;html=1;align=center;" vertex="1" parent="1">
          <mxGeometry x="880" y="245" width="120" height="60" as="geometry" />
        </mxCell>
        <mxCell id="2GNbs6HTa_5csAcw25Do-23" value="" style="edgeStyle=orthogonalEdgeStyle;fontSize=12;html=1;endArrow=ERoneToMany;rounded=0;exitX=0.5;exitY=1;exitDx=0;exitDy=0;entryX=1;entryY=0.5;entryDx=0;entryDy=0;" edge="1" parent="1" source="2GNbs6HTa_5csAcw25Do-21" target="xwqHHCTengvlu3q1u-sC-12">
          <mxGeometry width="100" height="100" relative="1" as="geometry">
            <mxPoint x="975" y="540" as="sourcePoint" />
            <mxPoint x="1075" y="440" as="targetPoint" />
          </mxGeometry>
        </mxCell>
        <mxCell id="2GNbs6HTa_5csAcw25Do-24" value="" style="edgeStyle=orthogonalEdgeStyle;fontSize=12;html=1;endArrow=ERoneToMany;rounded=0;exitX=0.5;exitY=0;exitDx=0;exitDy=0;entryX=0;entryY=0.5;entryDx=0;entryDy=0;" edge="1" parent="1" source="2GNbs6HTa_5csAcw25Do-21" target="xwqHHCTengvlu3q1u-sC-16">
          <mxGeometry width="100" height="100" relative="1" as="geometry">
            <mxPoint x="975" y="540" as="sourcePoint" />
            <mxPoint x="1075" y="440" as="targetPoint" />
          </mxGeometry>
        </mxCell>
        <mxCell id="2GNbs6HTa_5csAcw25Do-25" value="" style="edgeStyle=entityRelationEdgeStyle;fontSize=12;html=1;endArrow=ERmandOne;rounded=0;exitX=1;exitY=0.5;exitDx=0;exitDy=0;entryX=0;entryY=0.5;entryDx=0;entryDy=0;" edge="1" parent="1" source="0XWbLk1M8rzaQDneOr1y-11" target="xwqHHCTengvlu3q1u-sC-12">
          <mxGeometry width="100" height="100" relative="1" as="geometry">
            <mxPoint x="975" y="540" as="sourcePoint" />
            <mxPoint x="1075" y="440" as="targetPoint" />
          </mxGeometry>
        </mxCell>
      </root>
    </mxGraphModel>
  </diagram>
</mxfile>
